<?xml version="1.0" encoding="utf-8"?>
<!-- Generator: Adobe Illustrator 24.0.2, SVG Export Plug-In . SVG Version: 6.00 Build 0)  -->
<svg version="1.1" id="clear_x5F_to_x5F_overcast" xmlns="http://www.w3.org/2000/svg" xmlns:xlink="http://www.w3.org/1999/xlink"
	 x="0px" y="0px" viewBox="0 0 100 100" style="enable-background:new 0 0 100 100;" xml:space="preserve">
<style type="text/css">
	.st0{fill:#FFFFFF;}
</style>
<rect id="bg" x="0" y="0" class="st0" width="100" height="100"/>
<g id="sun">
	<path id="light" d="M51.52,21.14h-1.84c-1.38,0-2.5-1.12-2.5-2.5V8.65c0-1.38,1.12-2.5,2.5-2.5h1.84c1.38,0,2.5,1.12,2.5,2.5v9.99
		C54.02,20.02,52.91,21.14,51.52,21.14z"/>
	<path id="light" d="M37.15,24.74l-1.6,0.92c-1.2,0.69-2.72,0.28-3.42-0.92l-5-8.65c-0.69-1.2-0.28-2.72,0.92-3.42l1.6-0.92
		c1.2-0.69,2.72-0.28,3.42,0.92l5,8.65C38.76,22.52,38.35,24.05,37.15,24.74z"/>
	<path id="light" d="M26.86,33.93l-1.01,1.54c-0.76,1.15-2.31,1.47-3.46,0.71l-8.34-5.5c-1.15-0.76-1.47-2.31-0.71-3.46
		l1.01-1.54c0.76-1.15,2.31-1.47,3.46-0.71l8.34,5.5C27.3,31.22,27.62,32.77,26.86,33.93z"/>
	<path id="light" d="M21.65,49.54v1.84c0,1.38-1.12,2.5-2.5,2.5l-9.99,0c-1.38,0-2.5-1.12-2.5-2.5l0-1.84
		c0-1.38,1.12-2.5,2.5-2.5l9.99,0C20.53,47.04,21.65,48.16,21.65,49.54z"/>
	<path id="light" d="M25.2,63.97l0.92,1.6c0.69,1.2,0.28,2.72-0.92,3.42l-8.65,5c-1.2,0.69-2.72,0.28-3.42-0.92l-0.92-1.6
		c-0.69-1.2-0.28-2.72,0.92-3.42l8.65-5C22.98,62.36,24.51,62.77,25.2,63.97z"/>
	<path id="light" d="M33.66,74.5l1.54,1.01c1.15,0.76,1.47,2.31,0.71,3.46l-5.5,8.34c-0.76,1.15-2.31,1.47-3.46,0.71l-1.54-1.01
		c-1.15-0.76-1.47-2.31-0.71-3.46l5.5-8.34C30.96,74.06,32.51,73.74,33.66,74.5z"/>
	<path id="light" d="M65.71,25.21l1.49,1.09c1.11,0.82,2.68,0.58,3.49-0.54l5.91-8.06c0.82-1.11,0.58-2.68-0.54-3.49l-1.49-1.09
		c-1.11-0.82-2.68-0.58-3.49,0.54l-5.91,8.06C64.36,22.82,64.6,24.39,65.71,25.21z"/>
	<path id="light" d="M74.96,35.24l0.92,1.6c0.69,1.2,2.22,1.61,3.42,0.92l8.65-5c1.2-0.69,1.61-2.22,0.92-3.42l-0.92-1.6
		c-0.69-1.2-2.22-1.61-3.42-0.92l-8.65,5C74.68,32.51,74.27,34.04,74.96,35.24z"/>
	<path id="light" d="M79.64,49.41v1.84c0,1.38,1.12,2.5,2.5,2.5l9.99,0c1.38,0,2.5-1.12,2.5-2.5l0-1.84c0-1.38-1.12-2.5-2.5-2.5
		l-9.99,0C80.76,46.91,79.64,48.03,79.64,49.41z"/>
	<circle id="circle" cx="50.6" cy="50.46" r="21.44"/>
</g>
<path id="cloud" d="M48.92,82.96c0,0-8.66-11.08,4.65-15.55c0,0,5.03-11.36,14.15-10.52c0,0,8.38-1.68,13.96,10.7
	c0,0,4.56,0.93,6.05,4.75c0,0,6.89-0.65,5.77,7.07c0,0-0.93,2.79-4.47,3.54H48.92z"/>
</svg>
