<?xml version="1.0" encoding="utf-8"?>
<!-- Generator: Adobe Illustrator 24.0.2, SVG Export Plug-In . SVG Version: 6.00 Build 0)  -->
<svg version="1.1" id="fog" xmlns="http://www.w3.org/2000/svg" xmlns:xlink="http://www.w3.org/1999/xlink" x="0px" y="0px"
	 viewBox="0 0 100 100" style="enable-background:new 0 0 100 100;" xml:space="preserve">
<style type="text/css">
	.st0{fill:#FFFFFF;}
</style>
<rect id="bg" x="0" y="0" class="st0" width="100" height="100"/>
<path id="cloud" d="M10.46,58.81c0,0-16.48-20.52,8.86-28.8c0,0,9.57-21.04,26.93-19.49c0,0,15.95-3.1,26.58,19.83
	c0,0,8.68,1.72,11.52,8.79c0,0,13.11-1.21,10.99,13.11c0,0-1.77,5.17-8.5,6.55H10.46z"/>
<path id="line" d="M82.36,70.55H17.79c-0.83,0-1.5-0.67-1.5-1.5V68.7c0-0.83,0.67-1.5,1.5-1.5h64.56c0.83,0,1.5,0.67,1.5,1.5v0.35
	C83.86,69.88,83.19,70.55,82.36,70.55z"/>
<path id="line" d="M82.66,78.84H18.1c-0.83,0-1.5-0.67-1.5-1.5v-0.35c0-0.83,0.67-1.5,1.5-1.5h64.56c0.83,0,1.5,0.67,1.5,1.5
	v0.35C84.16,78.17,83.49,78.84,82.66,78.84z"/>
<path id="line" d="M82.66,87.14H18.1c-0.83,0-1.5-0.67-1.5-1.5v-0.35c0-0.83,0.67-1.5,1.5-1.5h64.56c0.83,0,1.5,0.67,1.5,1.5
	v0.35C84.16,86.47,83.49,87.14,82.66,87.14z"/>
</svg>
