<?xml version="1.0" encoding="utf-8"?>
<!-- Generator: Adobe Illustrator 24.0.2, SVG Export Plug-In . SVG Version: 6.00 Build 0)  -->
<svg version="1.1" id="rain" xmlns="http://www.w3.org/2000/svg" xmlns:xlink="http://www.w3.org/1999/xlink" x="0px" y="0px"
	 viewBox="0 0 100 100" style="enable-background:new 0 0 100 100;" xml:space="preserve">
<style type="text/css">
	.st0{fill:#FFFFFF;}
</style>
<rect id="bg" x="0" y="0" class="st0" width="100" height="100"/>
<path id="cloud" d="M12.81,53.01c0,0-15.74-20.15,8.46-28.27c0,0,9.14-20.65,25.73-19.13c0,0,15.24-3.05,25.39,19.47
	c0,0,8.3,1.69,11,8.63c0,0,12.53-1.19,10.5,12.87c0,0-1.69,5.08-8.13,6.43H12.81z"/>
<path id="water_drop_2_" d="M27.27,63.17c0,0-18.62,15.91-3.72,20.65C23.55,83.82,37.09,85.52,27.27,63.17z"/>
<path id="water_drop_1_" d="M65.05,61.2c0,0-18.62,15.91-3.72,20.65C61.32,81.85,74.86,83.54,65.05,61.2z"/>
<path id="water_drop" d="M47.48,76.38c0,0-18.62,15.91-3.72,20.65C43.76,97.03,57.3,98.72,47.48,76.38z"/>
</svg>
