<?xml version="1.0" encoding="utf-8"?>
<!-- Generator: Adobe Illustrator 24.0.2, SVG Export Plug-In . SVG Version: 6.00 Build 0)  -->
<svg version="1.1" id="sleet" xmlns="http://www.w3.org/2000/svg" xmlns:xlink="http://www.w3.org/1999/xlink" x="0px" y="0px"
	 viewBox="0 0 100 100" style="enable-background:new 0 0 100 100;" xml:space="preserve">
<style type="text/css">
	.st0{fill:#FFFFFF;}
</style>
<rect id="bg" x="0" y="0" class="st0" width="100" height="100"/>
<path id="cloud" d="M15.21,49.93c0,0-14.49-18.1,7.79-25.41c0,0,8.41-18.56,23.68-17.19c0,0,14.02-2.74,23.37,17.49
	c0,0,7.63,1.52,10.13,7.76c0,0,11.53-1.06,9.66,11.56c0,0-1.56,4.56-7.48,5.78H15.21z"/>
<path id="water_drop" d="M43.26,55.89c0,0-17.14,14.3-3.43,18.56C39.84,74.45,52.3,75.97,43.26,55.89z"/>
<path id="water_drop" d="M27,70.92c0,0-17.14,14.3-3.43,18.56C23.58,89.48,36.04,91,27,70.92z"/>
<path id="snow" d="M59.13,64.18l-1.24-0.7c0,0-0.73-1.09,0.7-1.2l1.05,0.57l0.26-0.95c0,0,0.68-1.06,1.43,0.19l-0.23,1.74
	l2.6,1.46l-0.17-2.64l-1.78-1.1c0,0-0.46-0.99,0.65-1.21l1.24,0.67l0.04-1.47c0,0,0.63-0.99,1.36,0.1l0.03,1.15l1.16-0.42
	c0,0,0.98,0.42,0.48,1.29l-1.73,0.85l0.22,2.9l2.26-1.38l0.14-2.07c0,0,0.8-0.88,1.48,0.12l-0.05,1.28l1.17-0.66
	c0,0,1.25-0.11,0.8,1.18l-1.09,0.61l0.86,0.72c0,0,0.34,1.02-0.99,1.11l-1.51-1.09l-2.43,1.47l2.37,1.37l1.95-0.89
	c0,0,1.02,0.25,0.68,1.18l-1.25,0.71l1.08,0.68c0,0,0.99,1.05-0.62,1.26l-1.09-0.63l-0.26,1.03c0,0-0.69,0.77-1.43-0.25l0.28-1.81
	l-2.53-1.45l0.1,2.65l1.78,1.11c0,0,0.42,0.89-0.74,1.24l-1.18-0.71l-0.09,1.32c0,0-0.67,1.03-1.46,0.02l0.06-1.11l-1.06,0.37
	c0,0-1.06-0.33-0.53-1.37l1.7-0.79l-0.14-2.91l-2.34,1.43l-0.11,1.99c0,0-0.75,0.78-1.51-0.02l0.13-1.32l-1.24,0.61
	c0,0-1.46-0.13-0.73-1.24l1.08-0.59l-0.84-0.76c0,0-0.22-1.1,0.96-1.05l1.48,1.07l2.44-1.38l-2.43-1.32l-1.89,0.94
	c0,0-0.94-0.3-0.65-1.28L59.13,64.18z"/>
<path id="snow" d="M48.88,86.79l-1.43-0.81c0,0-0.85-1.26,0.81-1.39l1.22,0.66l0.3-1.1c0,0,0.78-1.22,1.66,0.22l-0.27,2.01
	l3,1.69l-0.2-3.05l-2.05-1.27c0,0-0.53-1.15,0.75-1.4l1.44,0.78l0.05-1.69c0,0,0.73-1.14,1.57,0.12l0.03,1.33l1.34-0.49
	c0,0,1.14,0.48,0.56,1.5l-2,0.98l0.25,3.36l2.61-1.6l0.16-2.39c0,0,0.93-1.01,1.71,0.14l-0.06,1.47l1.35-0.76
	c0,0,1.45-0.13,0.93,1.36l-1.26,0.71L62.37,88c0,0,0.39,1.17-1.15,1.28l-1.75-1.26l-2.8,1.7l2.74,1.59l2.25-1.02
	c0,0,1.18,0.29,0.78,1.37L61,92.46l1.24,0.79c0,0,1.14,1.21-0.72,1.46l-1.26-0.73l-0.3,1.19c0,0-0.8,0.89-1.65-0.29l0.32-2.09
	l-2.93-1.68l0.12,3.07l2.06,1.28c0,0,0.48,1.03-0.85,1.44l-1.36-0.82l-0.1,1.53c0,0-0.77,1.19-1.69,0.02l0.07-1.29l-1.23,0.42
	c0,0-1.23-0.38-0.61-1.59l1.97-0.91l-0.16-3.36l-2.71,1.65l-0.12,2.3c0,0-0.87,0.91-1.74-0.02l0.15-1.53l-1.43,0.71
	c0,0-1.69-0.15-0.85-1.43l1.25-0.68l-0.97-0.87c0,0-0.25-1.28,1.11-1.21l1.71,1.24l2.82-1.59l-2.81-1.53l-2.19,1.09
	c0,0-1.08-0.34-0.75-1.48L48.88,86.79z"/>
</svg>
