<xml version="1.0" encoding="utf-8">
<!-- Generator: Adobe Illustrator 24.0.2, SVG Export Plug-In . SVG Version: 6.00 Build 0)  -->
<svg version="1.1" id="snowing" xmlns="http://www.w3.org/2000/svg" xmlns:xlink="http://www.w3.org/1999/xlink" x="0px" y="0px"
	 viewBox="0 0 100 100" style="enable-background:new 0 0 100 100;" xml:space="preserve">
<style type="text/css">
	.st0{fill:#FFFFFF;}
</style>
<rect id="bg" x="0" y="0" class="st0" width="100" height="100"/>
<path id="cloud" d="M12.81,52.17c0,0-15.74-20.21,8.46-28.36c0,0,9.14-20.72,25.73-19.19c0,0,15.24-3.06,25.39,19.53
	c0,0,8.3,1.7,11,8.66c0,0,12.53-1.19,10.5,12.9c0,0-1.69,5.09-8.13,6.45H12.81z"/>
<path id="snow" d="M34.88,61.66l-1.55-0.9c0,0-0.92-1.41,0.88-1.55l1.32,0.74l0.33-1.23c0,0,0.85-1.37,1.8,0.24l-0.29,2.24
	l3.26,1.88l-0.21-3.4l-2.23-1.41c0,0-0.57-1.28,0.82-1.56l1.56,0.87l0.06-1.89c0,0,0.79-1.28,1.71,0.13l0.04,1.48l1.46-0.54
	c0,0,1.24,0.54,0.61,1.67l-2.17,1.1l0.28,3.75l2.84-1.78l0.18-2.67c0,0,1.01-1.13,1.86,0.15l-0.06,1.65l1.47-0.85
	c0,0,1.58-0.15,1.01,1.52l-1.37,0.79L49.54,63c0,0,0.43,1.31-1.25,1.43l-1.9-1.41l-3.05,1.9l2.98,1.77l2.45-1.14
	c0,0,1.28,0.33,0.85,1.53l-1.57,0.91l1.35,0.88c0,0,1.24,1.36-0.78,1.63l-1.37-0.82l-0.32,1.33c0,0-0.87,1-1.79-0.33l0.35-2.33
	l-3.18-1.87l0.13,3.42l2.24,1.43c0,0,0.52,1.14-0.93,1.6l-1.48-0.92l-0.11,1.7c0,0-0.84,1.33-1.84,0.03l0.07-1.44l-1.33,0.47
	c0,0-1.34-0.43-0.67-1.77L40.52,70l-0.17-3.75l-2.94,1.84l-0.13,2.56c0,0-0.94,1.01-1.89-0.02l0.16-1.71l-1.56,0.79
	c0,0-1.84-0.16-0.92-1.6l1.36-0.76l-1.05-0.98c0,0-0.28-1.42,1.21-1.36l1.86,1.38l3.06-1.77l-3.05-1.7l-2.38,1.21
	c0,0-1.17-0.38-0.82-1.66L34.88,61.66z"/>
<path id="snow" d="M63.78,66.16l-1.34-0.78c0,0-0.8-1.22,0.76-1.34l1.14,0.64l0.28-1.06c0,0,0.73-1.18,1.56,0.21l-0.25,1.94
	l2.82,1.63l-0.19-2.94l-1.93-1.22c0,0-0.5-1.11,0.71-1.35l1.35,0.75L68.75,61c0,0,0.68-1.1,1.48,0.11l0.03,1.28l1.26-0.47
	c0,0,1.07,0.47,0.53,1.44l-1.88,0.95l0.24,3.24l2.46-1.54l0.15-2.31c0,0,0.87-0.98,1.61,0.13l-0.05,1.42l1.27-0.74
	c0,0,1.36-0.13,0.87,1.31l-1.18,0.69l0.94,0.81c0,0,0.37,1.13-1.08,1.24l-1.65-1.22l-2.64,1.64l2.58,1.53l2.12-0.99
	c0,0,1.1,0.28,0.74,1.32l-1.36,0.79l1.17,0.76c0,0,1.08,1.17-0.67,1.41l-1.19-0.71l-0.28,1.15c0,0-0.75,0.86-1.55-0.28l0.3-2.02
	l-2.75-1.62l0.11,2.96l1.94,1.24c0,0,0.45,0.99-0.8,1.39l-1.28-0.79l-0.09,1.47c0,0-0.73,1.15-1.59,0.02l0.06-1.24l-1.15,0.41
	c0,0-1.16-0.37-0.58-1.53l1.85-0.88l-0.15-3.25l-2.55,1.59l-0.11,2.22c0,0-0.82,0.87-1.64-0.02l0.14-1.48l-1.35,0.69
	c0,0-1.59-0.14-0.8-1.38l1.18-0.66l-0.91-0.84c0,0-0.24-1.23,1.05-1.17l1.61,1.2l2.65-1.54l-2.64-1.47l-2.06,1.05
	c0,0-1.02-0.33-0.71-1.43L63.78,66.16z"/>
<path id="snow" d="M49.37,84.41l-1.55-0.9c0,0-0.92-1.41,0.88-1.55l1.32,0.74l0.33-1.23c0,0,0.85-1.37,1.8,0.24l-0.29,2.24
	l3.26,1.88l-0.21-3.4l-2.23-1.41c0,0-0.57-1.28,0.82-1.56l1.56,0.87l0.06-1.89c0,0,0.79-1.28,1.71,0.13l0.04,1.48l1.46-0.54
	c0,0,1.24,0.54,0.61,1.67l-2.17,1.1l0.28,3.75l2.84-1.78l0.18-2.67c0,0,1.01-1.13,1.86,0.15l-0.06,1.65l1.47-0.85
	c0,0,1.58-0.15,1.01,1.52l-1.37,0.79l1.08,0.93c0,0,0.43,1.31-1.25,1.43l-1.9-1.41l-3.05,1.9l2.98,1.77l2.45-1.14
	c0,0,1.28,0.33,0.85,1.53l-1.57,0.91l1.35,0.88c0,0,1.24,1.36-0.78,1.63l-1.37-0.82l-0.32,1.33c0,0-0.87,1-1.79-0.33l0.35-2.33
	l-3.18-1.87l0.13,3.42l2.24,1.43c0,0,0.52,1.14-0.93,1.6l-1.48-0.92l-0.11,1.7c0,0-0.84,1.33-1.84,0.03l0.07-1.44l-1.33,0.47
	c0,0-1.34-0.43-0.67-1.77l2.14-1.02L54.84,89l-2.94,1.84l-0.13,2.56c0,0-0.94,1.01-1.89-0.02l0.16-1.71l-1.56,0.79
	c0,0-1.84-0.16-0.92-1.6l1.36-0.76l-1.05-0.98c0,0-0.28-1.42,1.21-1.36l1.86,1.38l3.06-1.77l-3.05-1.7l-2.38,1.21
	c0,0-1.17-0.38-0.82-1.66L49.37,84.41z"/>
<path id="snow" d="M25.83,88.84l-1.26-0.73c0,0-0.75-1.14,0.71-1.26l1.07,0.6l0.27-1c0,0,0.69-1.11,1.46,0.2l-0.23,1.82
	l2.65,1.53l-0.17-2.76l-1.81-1.15c0,0-0.47-1.04,0.66-1.27l1.27,0.71l0.05-1.53c0,0,0.64-1.04,1.39,0.11l0.03,1.2l1.18-0.44
	c0,0,1,0.44,0.49,1.36l-1.77,0.89l0.22,3.04l2.31-1.45l0.14-2.17c0,0,0.82-0.92,1.51,0.12l-0.05,1.34l1.19-0.69
	c0,0,1.28-0.12,0.82,1.23l-1.11,0.64l0.88,0.76c0,0,0.35,1.06-1.01,1.16l-1.54-1.15l-2.47,1.54l2.42,1.44L37.12,92
	c0,0,1.04,0.26,0.69,1.24l-1.28,0.74l1.1,0.72c0,0,1.01,1.1-0.63,1.32l-1.11-0.66l-0.26,1.08c0,0-0.71,0.81-1.46-0.27l0.28-1.89
	l-2.59-1.52l0.1,2.78l1.82,1.16c0,0,0.42,0.93-0.75,1.3l-1.2-0.75l-0.09,1.38c0,0-0.68,1.08-1.49,0.02l0.06-1.17l-1.08,0.38
	c0,0-1.09-0.35-0.54-1.44l1.74-0.83l-0.14-3.05l-2.39,1.5l-0.11,2.08c0,0-0.77,0.82-1.54-0.02l0.13-1.39l-1.27,0.64
	c0,0-1.49-0.13-0.75-1.3l1.1-0.62l-0.85-0.79c0,0-0.22-1.16,0.98-1.1l1.51,1.12l2.49-1.44l-2.48-1.38l-1.93,0.99
	c0,0-0.95-0.31-0.66-1.35L25.83,88.84z"/>
</svg>
