<?xml version="1.0" encoding="utf-8"?>
<!-- Generator: Adobe Illustrator 24.0.2, SVG Export Plug-In . SVG Version: 6.00 Build 0)  -->
<svg version="1.1" id="sunny" xmlns="http://www.w3.org/2000/svg" xmlns:xlink="http://www.w3.org/1999/xlink" x="0px" y="0px"
	 viewBox="0 0 100 100" style="enable-background:new 0 0 100 100;" xml:space="preserve">
<style type="text/css">
	.st0{fill:#FFFFFF;}
</style>
<rect id="bg" x="0" y="0" class="st0" width="100" height="100"/>
<g id="sun">
	<path id="light" d="M49.73,19.36h-0.69c-1.38,0-2.5-1.12-2.5-2.5V9.4c0-1.38,1.12-2.5,2.5-2.5h0.69c1.38,0,2.5,1.12,2.5,2.5
		v7.46C52.23,18.24,51.11,19.36,49.73,19.36z"/>
	<path id="light" d="M37.81,21.29l-0.65,0.24c-1.3,0.47-2.73-0.2-3.2-1.49l-2.55-7.01c-0.47-1.3,0.2-2.73,1.49-3.2l0.65-0.24
		c1.3-0.47,2.73,0.2,3.2,1.49l2.55,7.01C39.78,19.38,39.11,20.82,37.81,21.29z"/>
	<path id="light" d="M27.84,27.92l-0.48,0.49c-0.97,0.98-2.55,0.99-3.54,0.03L18.5,23.2c-0.98-0.97-0.99-2.55-0.03-3.54
		l0.48-0.49c0.97-0.98,2.55-0.99,3.54-0.03l5.31,5.24C28.79,25.36,28.81,26.94,27.84,27.92z"/>
	<path id="light" d="M20.84,37.77l-0.29,0.63c-0.57,1.26-2.06,1.81-3.31,1.23l-6.79-3.11c-1.26-0.57-1.81-2.06-1.23-3.31
		l0.29-0.63c0.57-1.26,2.06-1.81,3.31-1.23l6.79,3.11C20.86,35.03,21.41,36.51,20.84,37.77z"/>
	<path id="light" d="M18.85,49.42v0.69c0,1.38-1.12,2.5-2.5,2.5H8.89c-1.38,0-2.5-1.12-2.5-2.5l0-0.69c0-1.38,1.12-2.5,2.5-2.5
		h7.46C17.74,46.92,18.85,48.04,18.85,49.42z"/>
	<path id="light" d="M20.78,61.35l0.24,0.65c0.47,1.3-0.2,2.73-1.49,3.2l-7.01,2.55c-1.3,0.47-2.73-0.2-3.2-1.49l-0.24-0.65
		c-0.47-1.3,0.2-2.73,1.49-3.2l7.01-2.55C18.88,59.38,20.31,60.05,20.78,61.35z"/>
	<path id="light" d="M27.42,71.32l0.49,0.48c0.98,0.97,0.99,2.55,0.03,3.54l-5.24,5.31c-0.97,0.98-2.55,0.99-3.54,0.03
		l-0.49-0.48c-0.98-0.97-0.99-2.55-0.03-3.54l5.24-5.31C24.85,70.36,26.43,70.35,27.42,71.32z"/>
	<path id="light" d="M37.26,78.32l0.63,0.29c1.26,0.57,1.81,2.06,1.23,3.31l-3.11,6.79c-0.57,1.26-2.06,1.81-3.31,1.23
		l-0.63-0.29c-1.26-0.57-1.81-2.06-1.23-3.31l3.11-6.79C34.52,78.3,36.01,77.74,37.26,78.32z"/>
	<path id="light" d="M49.04,93.35h0.69c1.38,0,2.5-1.12,2.5-2.5v-7.46c0-1.38-1.12-2.5-2.5-2.5h-0.69c-1.38,0-2.5,1.12-2.5,2.5
		v7.46C46.54,92.23,47.66,93.35,49.04,93.35z"/>
	<path id="light" d="M60.97,21.29l0.65,0.24c1.3,0.47,2.73-0.2,3.2-1.49l2.55-7.01c0.47-1.3-0.2-2.73-1.49-3.2l-0.65-0.24
		c-1.3-0.47-2.73,0.2-3.2,1.49l-2.55,7.01C59,19.38,59.67,20.82,60.97,21.29z"/>
	<path id="light" d="M70.94,27.92l0.48,0.49c0.97,0.98,2.55,0.99,3.54,0.03l5.31-5.24c0.98-0.97,0.99-2.55,0.03-3.54l-0.48-0.49
		c-0.97-0.98-2.55-0.99-3.54-0.03l-5.31,5.24C69.98,25.36,69.97,26.94,70.94,27.92z"/>
	<path id="light" d="M77.94,37.77l0.29,0.63c0.57,1.26,2.06,1.81,3.31,1.23l6.79-3.11c1.26-0.57,1.81-2.06,1.23-3.31l-0.29-0.63
		c-0.57-1.26-2.06-1.81-3.31-1.23l-6.79,3.11C77.92,35.03,77.36,36.51,77.94,37.77z"/>
	<path id="light" d="M79.92,49.42v0.69c0,1.38,1.12,2.5,2.5,2.5h7.46c1.38,0,2.5-1.12,2.5-2.5v-0.69c0-1.38-1.12-2.5-2.5-2.5
		h-7.46C81.04,46.92,79.92,48.04,79.92,49.42z"/>
	<path id="light" d="M77.99,61.35l-0.24,0.65c-0.47,1.3,0.2,2.73,1.49,3.2l7.01,2.55c1.3,0.47,2.73-0.2,3.2-1.49l0.24-0.65
		c0.47-1.3-0.2-2.73-1.49-3.2l-7.01-2.55C79.9,59.38,78.47,60.05,77.99,61.35z"/>
	<path id="light" d="M71.36,71.32l-0.49,0.48c-0.98,0.97-0.99,2.55-0.03,3.54l5.24,5.31c0.97,0.98,2.55,0.99,3.54,0.03l0.49-0.48
		c0.98-0.97,0.99-2.55,0.03-3.54l-5.24-5.31C73.93,70.36,72.35,70.35,71.36,71.32z"/>
	<path id="light" d="M61.52,78.32l-0.63,0.29c-1.26,0.57-1.81,2.06-1.23,3.31l3.11,6.79c0.57,1.26,2.06,1.81,3.31,1.23l0.63-0.29
		c1.26-0.57,1.81-2.06,1.23-3.31l-3.11-6.79C64.26,78.3,62.77,77.74,61.52,78.32z"/>
	<circle id="circle" cx="49.03" cy="49.89" r="23.45"/>
</g>
</svg>
