<?xml version="1.0" encoding="utf-8"?>
<!-- Generator: Adobe Illustrator 24.0.2, SVG Export Plug-In . SVG Version: 6.00 Build 0)  -->
<svg version="1.1" id="sunny_rain" xmlns="http://www.w3.org/2000/svg" xmlns:xlink="http://www.w3.org/1999/xlink" x="0px" y="0px"
	 viewBox="0 0 100 100" style="enable-background:new 0 0 100 100;" xml:space="preserve">
<style type="text/css">
	.st0{fill:#FFFFFF;}
</style>
<rect id="bg" x="0" y="0" class="st0" width="100" height="100"/>
<g id="sun">
	<path id="light" d="M42.8,17.55h-0.68c-1.38,0-2.5-1.12-2.5-2.5V7.6c0-1.38,1.12-2.5,2.5-2.5h0c1.76,0,3.18,1.42,3.18,3.18v6.76
		C45.3,16.43,44.18,17.55,42.8,17.55z"/>
	<path id="light" d="M30.93,20.74l-0.59,0.34c-1.2,0.69-2.72,0.28-3.42-0.92l-3.72-6.44c-0.69-1.2-0.28-2.72,0.92-3.42l0,0
		c1.52-0.88,3.47-0.36,4.34,1.16l3.38,5.86C32.53,18.52,32.12,20.05,30.93,20.74z"/>
	<path id="light" d="M22.52,28.51l-0.37,0.57c-0.76,1.15-2.31,1.47-3.46,0.71l-6.21-4.1c-1.15-0.76-1.47-2.31-0.71-3.46l0,0
		c0.97-1.47,2.94-1.87,4.4-0.9l5.65,3.72C22.96,25.81,23.28,27.36,22.52,28.51z"/>
	<path id="light" d="M18.43,41.54v0.68c0,1.38-1.12,2.5-2.5,2.5l-7.44,0c-1.38,0-2.5-1.12-2.5-2.5v0c0-1.76,1.42-3.18,3.18-3.18
		l6.76,0C17.31,39.04,18.43,40.16,18.43,41.54z"/>
	<path id="light" d="M21.59,53.46l0.34,0.59c0.69,1.2,0.28,2.72-0.92,3.42l-6.44,3.72c-1.2,0.69-2.72,0.28-3.42-0.92l0,0
		c-0.88-1.52-0.36-3.47,1.16-4.34l5.86-3.38C19.37,51.86,20.9,52.27,21.59,53.46z"/>
	<path id="light" d="M28.75,62.07l0.57,0.37c1.15,0.76,1.47,2.31,0.71,3.46l-4.1,6.21c-0.76,1.15-2.31,1.47-3.46,0.71h0
		c-1.47-0.97-1.87-2.94-0.9-4.4l3.72-5.65C26.05,61.63,27.6,61.31,28.75,62.07z"/>
	<path id="light" d="M55.89,21.57L55.89,21.57c1.11,0.82,2.68,0.58,3.49-0.54l4.4-6c0.82-1.11,0.58-2.68-0.54-3.49l-0.55-0.4
		c-1.11-0.82-2.68-0.58-3.49,0.54l-4,5.45C54.17,18.54,54.48,20.53,55.89,21.57z"/>
	<path id="light" d="M63.23,30.2L63.23,30.2c0.69,1.2,2.22,1.61,3.42,0.92l6.44-3.72c1.2-0.69,1.61-2.22,0.92-3.42l-0.34-0.59
		c-0.69-1.2-2.22-1.61-3.42-0.92l-5.86,3.38C62.87,26.74,62.35,28.68,63.23,30.2z"/>
	<path id="light" d="M66.56,42.11L66.56,42.11c0,1.38,1.12,2.5,2.5,2.5l7.44,0c1.38,0,2.5-1.12,2.5-2.5v-0.68
		c0-1.38-1.12-2.5-2.5-2.5l-6.76,0C67.99,38.93,66.56,40.35,66.56,42.11z"/>
	<circle id="circle" cx="42.46" cy="41.88" r="17.8"/>
</g>
<g id="rainy">
	<path id="water_drop" d="M45.98,75.78c0,0-11.51,9.84-2.3,12.76C43.68,88.54,52.05,89.59,45.98,75.78z"/>
	<path id="water_drop" d="M69.32,74.55c0,0-11.51,9.84-2.3,12.76C67.02,87.32,75.39,88.37,69.32,74.55z"/>
	<path id="water_drop" d="M58.47,83.94c0,0-11.51,9.84-2.3,12.76C56.17,96.7,64.54,97.75,58.47,83.94z"/>
	<path id="cloud" d="M41.07,68.85c0,0-7.18-9.19,3.86-12.9c0,0,4.17-9.43,11.74-8.73c0,0,6.95-1.39,11.59,8.88
		c0,0,3.79,0.77,5.02,3.94c0,0,5.72-0.54,4.79,5.87c0,0-0.77,2.32-3.71,2.94H41.07z"/>
</g>
</svg>
