<?xml version="1.0" encoding="utf-8"?>
<!-- Generator: Adobe Illustrator 24.0.2, SVG Export Plug-In . SVG Version: 6.00 Build 0)  -->
<svg version="1.1" id="thunder" xmlns="http://www.w3.org/2000/svg" xmlns:xlink="http://www.w3.org/1999/xlink" x="0px" y="0px"
	 viewBox="0 0 100 100" style="enable-background:new 0 0 100 100;" xml:space="preserve">
<style type="text/css">
	.st0{fill:#FFFFFF;}
</style>
<rect id="bg" x="0" y="0" class="st0" width="100" height="100"/>
<path id="cloud" d="M11.04,52.72c0,0-16.06-20.55,8.64-28.84c0,0,9.33-21.07,26.25-19.52c0,0,15.54-3.11,25.91,19.86
	c0,0,8.46,1.73,11.23,8.81c0,0,12.78-1.21,10.71,13.13c0,0-1.73,5.18-8.29,6.56H11.04z"/>
<polygon id="lightning" points="34.01,39.65 16.32,78.09 28.9,75.37 23.46,99.8 44.21,63.8 28.56,65.84 "/>
<polygon id="lightning_1_" points="49.96,75.37 66.32,39.65 60.81,65.5 75.51,62.1 56.12,96.15 60.81,72.49 "/>
</svg>
